# xmcd CD database file
#
# Track frame offsets:
#	150
#	18445
#	36822
#
# Disc length: 730 seconds
#
# Revision: 0
# Processed by: cddbd v1.5.1PL0 Copyright (c) Steve Scherf et al.
# Submitted via: CDex 1.51
#
DISCID=1a02d803
DTITLE=加藤紀子 - 思い切り泣いていい
DYEAR=1993
DGENRE=Pop
TTITLE0=思い切り泣いていい
TTITLE1=いつの日か
TTITLE2=思い切り泣いていい (カラオケ)
EXTD=YEAR: 1993
EXTT0=
EXTT1=
EXTT2=
PLAYORDER=
